<svg width="26" height="40" viewBox="0 0 26 40" fill="none" xmlns="http://www.w3.org/2000/svg">
<path id="Vector" d="M17.6445 3.0748C19.2065 1.23052 20.7685 0.280442 22.3305 0.280442C23.2157 0.280442 23.8925 0.559878 24.3612 1.06286C24.8298 1.56585 25.0901 2.12472 25.0901 2.73948C25.0901 4.02488 24.5694 4.69553 23.476 4.69553C22.8512 4.69553 22.3826 4.30432 21.914 3.5219C21.4975 2.79537 21.0809 2.40416 20.6644 2.40416C19.9875 2.40416 19.2065 2.90714 18.3734 3.91311C19.3106 5.53384 19.7792 7.21045 19.7792 8.99884C19.7792 11.3461 18.9982 13.4139 17.4362 15.2023C15.8742 16.9907 13.2188 17.9967 9.52204 18.1085C5.66908 18.2202 3.7426 19.0585 3.7426 20.6234C3.7426 21.3499 4.15913 21.8529 5.04427 22.1323C5.87735 22.4677 7.69969 22.6912 10.4592 22.8589C13.4791 23.0265 15.7701 23.306 17.3842 23.7531C18.9982 24.2002 20.2999 25.0944 21.2371 26.3798C22.1743 27.7211 22.695 29.2859 22.695 31.1302C22.695 33.701 21.7057 35.7688 19.7272 37.3336C17.7486 38.8985 14.937 39.6809 11.2403 39.6809C7.8559 39.6809 5.14841 38.9544 3.11779 37.5572C1.08718 36.16 0.0458374 34.3716 0.0458374 32.2479C0.0458374 31.0743 0.358238 30.0683 0.930976 29.3418C1.50371 28.5594 2.33679 28.224 3.4302 28.224C3.7426 28.224 4.00293 28.2799 4.2112 28.3917C3.06573 29.733 2.54505 31.1302 2.54505 32.5832C2.54505 34.3157 3.27399 35.7129 4.78394 36.8307C6.29388 37.9484 8.53277 38.5073 11.5006 38.5073C14.156 38.5073 16.2387 37.9484 17.6966 36.7748C19.1544 35.657 19.9355 34.204 19.9355 32.4156C19.9355 30.4595 19.2586 29.1182 17.9569 28.2799C16.6552 27.4975 14.2601 27.0504 10.8758 26.8827C6.97075 26.7151 4.41947 26.2121 3.27399 25.3179C2.12852 24.4796 1.55578 23.4177 1.55578 22.0764C1.55578 19.5056 3.22193 17.9408 6.55422 17.2701C4.83601 16.1524 3.53433 14.9229 2.64919 13.5257C1.76405 12.1285 1.34751 10.5637 1.34751 8.83118C1.34751 6.37215 2.23265 4.30432 4.055 2.6277C5.82528 0.895201 7.96003 0.0568936 10.4072 0.0568936C13.375 0.00100639 15.7701 1.00698 17.6445 3.0748ZM5.35668 9.44594C5.35668 11.9609 5.82528 13.8051 6.81455 14.9788C7.75176 16.1524 9.00137 16.7113 10.5113 16.7113C11.9171 16.7113 13.0626 16.1524 14.0519 14.9788C15.0411 13.8051 15.5618 11.7932 15.5618 8.94296C15.5618 6.03682 15.0412 4.08077 13.9998 2.96303C12.9585 1.84528 11.7609 1.3423 10.4072 1.3423C8.74103 1.3423 7.49142 2.01294 6.65835 3.35424C5.77321 4.69553 5.35668 6.76336 5.35668 9.44594Z" fill="white"/>
</svg>
