<svg width="25" height="26" viewBox="0 0 25 26" fill="none" xmlns="http://www.w3.org/2000/svg">
<path id="Vector" d="M0.658447 12.9099C0.658447 9.22137 1.80392 6.20346 4.09488 3.68855C6.38583 1.22952 9.19746 0 12.5298 0C15.9141 0 18.7257 1.22952 21.0167 3.68855C23.3076 6.14758 24.4531 9.22137 24.4531 12.854C24.4531 16.8779 23.3076 20.0635 20.9646 22.3548C18.6216 24.6462 15.81 25.8198 12.5298 25.8198C9.24952 25.8198 6.4379 24.6462 4.14695 22.2989C1.80392 20.0076 0.658447 16.8779 0.658447 12.9099ZM5.18829 13.0217C5.18829 17.2691 5.81309 20.2311 7.11477 21.9636C8.41645 23.6961 10.1867 24.5344 12.5298 24.5344C14.9248 24.5344 16.7472 23.6961 17.9968 21.9636C19.2464 20.2311 19.8712 17.2691 19.8712 13.0217C19.8712 8.83016 19.2464 5.81226 17.9968 4.02387C16.7472 2.23548 14.9248 1.34129 12.5298 1.34129C10.1347 1.34129 8.31231 2.23548 7.0627 4.02387C5.81309 5.81226 5.18829 8.83016 5.18829 13.0217Z" fill="white"/>
</svg>
