<svg width="22" height="26" viewBox="0 0 22 26" fill="none" xmlns="http://www.w3.org/2000/svg">
<path id="Vector" d="M21.0118 9.05371H5.44379C5.39172 10.2273 5.33966 11.0656 5.33966 11.6245C5.33966 15.8161 5.96446 19.0016 7.162 21.1253C8.41161 23.249 10.234 24.3109 12.629 24.3109C15.9093 24.3109 18.2523 22.7461 19.6581 19.5605H20.9598C20.387 21.5724 19.2416 23.0814 17.5233 24.1991C15.8051 25.3169 13.9307 25.8757 11.9001 25.8757C10.0257 25.8757 8.20334 25.3727 6.53719 24.3668C4.87105 23.3608 3.46524 21.9077 2.4239 20.0076C1.33049 18.1633 0.809814 15.8719 0.809814 13.1894C0.809814 9.38903 1.85116 6.25936 3.93384 3.74444C6.01652 1.22952 8.56781 0 11.6918 0C14.6076 0 16.8985 0.950081 18.4606 2.85024C20.0746 4.80629 20.9077 6.81823 21.0118 9.05371ZM16.2217 7.88008C16.2737 7.43299 16.3258 7.04178 16.3258 6.70645C16.3258 4.97395 15.8572 3.68855 14.92 2.73847C13.9828 1.78839 12.8373 1.34129 11.4836 1.34129C8.15127 1.2854 6.17273 3.465 5.54792 7.88008H16.2217Z" fill="white"/>
</svg>
