<svg width="28" height="31" viewBox="0 0 28 31" fill="none" xmlns="http://www.w3.org/2000/svg">
<path id="Vector" d="M0.231953 15.5523C0.231953 11.38 1.53098 7.96622 4.12904 5.12144C6.7271 2.33988 9.91562 0.949097 13.6946 0.949097C17.5327 0.949097 20.7212 2.33988 23.3192 5.12144C25.9173 7.90301 27.2163 11.38 27.2163 15.4891C27.2163 20.0407 25.9173 23.6441 23.2602 26.236C20.6031 28.828 17.4146 30.1555 13.6946 30.1555C9.97467 30.1555 6.78614 28.828 4.18809 26.1728C1.53098 23.5809 0.231953 20.0407 0.231953 15.5523ZM5.36902 15.6787C5.36902 20.4833 6.07758 23.8338 7.55375 25.7935C9.02992 27.7533 11.0375 28.7015 13.6946 28.7015C16.4108 28.7015 18.4774 27.7533 19.8945 25.7935C21.3116 23.8338 22.0202 20.4833 22.0202 15.6787C22.0202 10.9374 21.3116 7.5237 19.8945 5.50075C18.4774 3.47779 16.4108 2.46631 13.6946 2.46631C10.9785 2.46631 8.91183 3.47779 7.4947 5.50075C6.07758 7.5237 5.36902 10.9374 5.36902 15.6787Z" fill="black"/>
</svg>
