<svg width="24" height="31" viewBox="0 0 24 31" fill="none" xmlns="http://www.w3.org/2000/svg">
<path id="Vector" d="M23.4397 11.1903H5.78482C5.72577 12.5179 5.66673 13.4661 5.66673 14.0983C5.66673 18.8396 6.37529 22.443 7.73336 24.8453C9.15047 27.2475 11.2171 28.4487 13.9332 28.4487C17.6532 28.4487 20.3103 26.6786 21.9045 23.0752H23.3807C22.7312 25.351 21.4321 27.0579 19.4836 28.3222C17.5351 29.5866 15.4094 30.2187 13.1066 30.2187C10.9809 30.2187 8.91428 29.6498 7.02479 28.5119C5.1353 27.374 3.54105 25.7303 2.36012 23.5809C1.12015 21.4947 0.529678 18.9028 0.529678 15.8684C0.529678 11.5696 1.71061 8.02944 4.07247 5.18466C6.43433 2.33988 9.32761 0.949097 12.8704 0.949097C16.177 0.949097 18.775 2.02379 20.5464 4.17318C22.3769 6.38579 23.3216 8.66162 23.4397 11.1903ZM18.0074 9.86275C18.0665 9.35701 18.1255 8.91449 18.1255 8.53518C18.1255 6.57544 17.5941 5.12144 16.5313 4.04675C15.4684 2.97205 14.1694 2.46631 12.6342 2.46631C8.85523 2.4031 6.61147 4.86857 5.90291 9.86275H18.0074Z" fill="black"/>
</svg>
