<svg width="29" height="45" viewBox="0 0 29 45" fill="none" xmlns="http://www.w3.org/2000/svg">
<path id="Vector" d="M20.2484 3.42734C22.0198 1.34117 23.7912 0.266473 25.5626 0.266473C26.5664 0.266473 27.334 0.58256 27.8654 1.15152C28.3968 1.72047 28.692 2.35265 28.692 3.04804C28.692 4.50204 28.1016 5.26065 26.8616 5.26065C26.153 5.26065 25.6216 4.81813 25.0902 3.93308C24.6178 3.11126 24.1455 2.66873 23.6731 2.66873C22.9055 2.66873 22.0198 3.23769 21.075 4.3756C22.1379 6.20891 22.6693 8.10543 22.6693 10.1284C22.6693 12.7835 21.7836 15.1226 20.0122 17.1455C18.2408 19.1685 15.2294 20.3064 11.0371 20.4328C6.66765 20.5593 4.48293 21.5075 4.48293 23.2776C4.48293 24.0994 4.9553 24.6684 5.95909 24.9845C6.90384 25.3638 8.97047 25.6166 12.0999 25.8063C15.5246 25.996 18.1227 26.312 19.9531 26.8178C21.7836 27.3235 23.2598 28.335 24.3226 29.789C25.3854 31.3062 25.9759 33.0763 25.9759 35.1625C25.9759 38.0705 24.854 40.4095 22.6102 42.1796C20.3665 43.9497 17.178 44.8347 12.9856 44.8347C9.14761 44.8347 6.07718 44.0129 3.77436 42.4325C1.47154 40.852 0.290615 38.8291 0.290615 36.4268C0.290615 35.0993 0.644893 33.9613 1.29441 33.1395C1.94392 32.2545 2.88867 31.8752 4.12865 31.8752C4.48293 31.8752 4.77816 31.9384 5.01435 32.0648C3.71532 33.582 3.12485 35.1625 3.12485 36.8061C3.12485 38.7659 3.95151 40.3463 5.66386 41.6106C7.37621 42.875 9.91522 43.5072 13.2809 43.5072C16.2923 43.5072 18.6541 42.875 20.3074 41.5474C21.9607 40.2831 22.8464 38.6394 22.8464 36.6165C22.8464 34.4039 22.0788 32.8866 20.6027 31.9384C19.1265 31.0533 16.4103 30.5476 12.5723 30.358C8.14382 30.1683 5.25053 29.5993 3.9515 28.5879C2.65248 27.6396 2.00296 26.4385 2.00296 24.9213C2.00296 22.0133 3.89246 20.2432 7.67144 19.4846C5.72291 18.2202 4.24674 16.8294 3.24295 15.249C2.23915 13.6686 1.76678 11.8985 1.76678 9.93873C1.76678 7.15717 2.77057 4.81813 4.8372 2.9216C6.84479 0.961865 9.2657 0.0136038 12.0409 0.0136038C15.4066 -0.0496136 18.1227 1.0883 20.2484 3.42734ZM6.31337 10.6341C6.31337 13.4789 6.84479 15.5651 7.96668 16.8926C9.02952 18.2202 10.4466 18.8524 12.159 18.8524C13.7532 18.8524 15.0523 18.2202 16.1742 16.8926C17.296 15.5651 17.8865 13.2893 17.8865 10.0652C17.8865 6.77786 17.296 4.56526 16.1151 3.30091C14.9342 2.03656 13.5761 1.4676 12.0409 1.4676C10.1514 1.4676 8.73428 2.22621 7.78954 3.74343C6.78574 5.26065 6.31337 7.59969 6.31337 10.6341Z" fill="black"/>
</svg>
