<svg width="20" height="20" viewBox="0 0 20 20" fill="none" xmlns="http://www.w3.org/2000/svg">
<g id="search">
<path id="Vector" d="M9.75 10C12.5117 10 14.75 7.76172 14.75 5C14.75 2.23828 12.5117 0 9.75 0C6.98828 0 4.75 2.23828 4.75 5C4.75 7.76172 6.98828 10 9.75 10ZM13.25 11.25H12.5977C11.7305 11.6484 10.7656 11.875 9.75 11.875C8.73438 11.875 7.77344 11.6484 6.90234 11.25H6.25C3.35156 11.25 1 13.6016 1 16.5V18.125C1 19.1602 1.83984 20 2.875 20H16.625C17.6602 20 18.5 19.1602 18.5 18.125V16.5C18.5 13.6016 16.1484 11.25 13.25 11.25Z" fill="white"/>
</g>
</svg>
