<svg width="31" height="29" viewBox="0 0 31 29" fill="none" xmlns="http://www.w3.org/2000/svg">
<path id="Vector" d="M26.6764 0.024292V17.7884C26.6764 20.7596 26.7355 22.5929 26.7945 23.3515C26.8536 24.1101 27.2078 24.6791 27.6802 25.0584C28.2116 25.4377 29.1564 25.6273 30.5145 25.6273V27.1445C27.385 27.2078 25.0822 27.5239 23.665 28.2192H23.3108C22.6612 27.0181 22.307 24.9319 22.2479 21.9607C21.0079 24.0469 19.5318 25.6273 17.9375 26.702C16.3432 27.7767 14.5128 28.2825 12.5642 28.2825C10.8519 28.2825 9.37573 27.8399 8.0767 27.0181C6.77767 26.1963 5.89197 25.1848 5.4196 23.9837C4.94723 22.7825 4.71103 21.0125 4.71103 18.6102V9.31724C4.71103 6.15638 4.65199 4.25986 4.5339 3.56446C4.4158 2.86907 4.12057 2.36333 3.58915 2.04725C3.05773 1.73116 2.05393 1.54151 0.577759 1.54151V0.024292H9.19859V18.7999C9.19859 20.6332 9.31668 22.0239 9.49382 22.8458C9.67096 23.6676 10.2024 24.4262 11.0881 25.0584C11.9147 25.6905 12.9185 26.0066 14.0404 26.0066C15.6347 26.0066 17.1108 25.4377 18.587 24.363C20.0041 23.2251 21.0079 22.0872 21.5394 20.8228C22.0708 19.5585 22.307 17.7884 22.307 15.4493V9.31724C22.307 6.34603 22.2479 4.57594 22.1889 3.94377C22.1298 3.3116 21.8936 2.74264 21.4213 2.30012C20.9489 1.8576 20.0041 1.60473 18.528 1.60473H17.8785V0.024292H26.6764Z" fill="black"/>
</svg>
