<svg width="28" height="26" viewBox="0 0 28 26" fill="none" xmlns="http://www.w3.org/2000/svg">
<path id="Vector" d="M23.8849 0.950439V16.6548C23.8849 19.2815 23.9369 20.9023 23.989 21.5729C24.0411 22.2436 24.3535 22.7465 24.77 23.0819C25.2386 23.4172 26.0717 23.5849 27.2692 23.5849V24.9262C24.5097 24.982 22.479 25.2615 21.2294 25.8762H20.917C20.3443 24.8144 20.0319 22.9701 19.9798 20.3434C18.8864 22.1877 17.5847 23.5849 16.1789 24.5349C14.7731 25.485 13.159 25.9321 11.4408 25.9321C9.93081 25.9321 8.62913 25.5409 7.48365 24.8144C6.33817 24.0878 5.55716 23.1936 5.14062 22.1318C4.72408 21.0699 4.51581 19.5051 4.51581 17.3813V9.16589C4.51581 6.37152 4.46374 4.6949 4.35961 4.08014C4.25548 3.46537 3.99514 3.01828 3.52653 2.73884C3.05792 2.4594 2.17278 2.29174 0.871094 2.29174V0.950439H8.47292V17.549C8.47292 19.1697 8.57706 20.3993 8.73326 21.1258C8.88946 21.8523 9.35807 22.523 10.1391 23.0819C10.868 23.6407 11.7532 23.9202 12.7424 23.9202C14.1483 23.9202 15.4499 23.4172 16.7516 22.4671C18.0012 21.4611 18.8864 20.4552 19.355 19.3374C19.8236 18.2197 20.0319 16.6548 20.0319 14.587V9.16589C20.0319 6.53918 19.9798 4.97434 19.9277 4.41546C19.8757 3.85659 19.6674 3.3536 19.2509 2.96239C18.8343 2.57118 18.0012 2.34763 16.6996 2.34763H16.1268V0.950439H23.8849Z" fill="white"/>
</svg>
