<svg width="30" height="29" viewBox="0 0 30 29" fill="none" xmlns="http://www.w3.org/2000/svg">
<path id="Vector" d="M15.4112 28.2192H13.6398L4.66469 6.47247C3.77899 4.38629 3.07043 3.05873 2.53901 2.48977C2.06664 1.92081 1.18093 1.60473 0 1.54151V0.024292H11.4551V1.54151C10.2151 1.54151 9.32938 1.66794 8.85701 1.8576C8.38463 2.04725 8.14845 2.48977 8.14845 3.12194C8.14845 3.62768 8.56177 4.7656 9.38843 6.66212L16.2378 23.0986L22.3787 8.49542C23.3235 6.15638 23.8549 4.63916 23.8549 3.94377C23.8549 2.48977 22.8511 1.66794 20.7844 1.60473V0.024292H29.2872V1.54151C28.2243 1.60473 27.3386 2.04725 26.6301 2.93229C25.9215 3.81733 24.9177 5.77707 23.6777 8.81151L15.4112 28.2192Z" fill="black"/>
</svg>
