<svg width="26" height="26" viewBox="0 0 26 26" fill="none" xmlns="http://www.w3.org/2000/svg">
<path id="Vector" d="M13.5895 25.876H12.0275L4.11331 6.6509C3.3323 4.80663 2.70749 3.63301 2.23889 3.13003C1.82235 2.62705 1.04134 2.34761 0 2.29172V0.950439H10.101V2.29172C9.00762 2.29172 8.22661 2.4035 7.81008 2.57116C7.39354 2.73882 7.18527 3.13003 7.18527 3.6889C7.18527 4.13599 7.54974 5.14195 8.27868 6.81856L14.3185 21.3491L19.7335 8.43928C20.5665 6.37146 21.0351 5.03018 21.0351 4.41542C21.0351 3.13003 20.15 2.4035 18.3276 2.34761V0.950439H25.8253V2.29172C24.8881 2.34761 24.1071 2.73882 23.4823 3.52123C22.8575 4.30365 21.9723 6.03614 20.8789 8.71871L13.5895 25.876Z" fill="white"/>
</svg>
